# Blender v2.82 (sub 7) OBJ File: ''
# www.blender.org
mtllib arrow.mtl
o arrow_model
v 0.000206 0.235206 0.000000
v 0.000206 -0.000000 0.050000
v -0.146794 -0.106794 -0.000000
v 0.000206 0.000000 0.000000
v 0.000206 0.000000 -0.050000
v 0.147206 -0.106794 -0.000000
vt 0.414654 0.607190
vt 0.000127 0.178034
vt 0.262598 0.230902
vt 0.169344 0.000127
vt 0.414654 0.010526
vt 0.584125 0.000127
vt 0.677379 0.230902
vt 0.829435 0.010526
vt 0.414908 0.178034
vt 0.829435 0.607189
vt 0.999873 0.418499
vt 0.829689 0.036305
vt 0.914781 0.018216
vt 0.999873 0.000127
vn 0.4355 -0.1872 -0.8805
vn -0.5878 0.8090 0.0000
vn 0.5878 0.8090 0.0000
vn 0.4355 0.1872 -0.8805
vn 0.4355 -0.1872 0.8805
vn -1.0000 -0.0000 0.0000
vn -0.4355 -0.1872 -0.8805
usemtl arrow_material
s 1
f 1/1/1 2/2/1 3/3/1
f 4/4/2 3/3/2 2/2/2
f 3/3/2 4/4/2 5/5/2
f 4/6/3 6/7/3 5/8/3
f 6/7/3 4/6/3 2/9/3
f 6/7/4 5/8/4 1/10/4
f 1/1/5 3/3/5 5/5/5
f 1/11/6 5/12/6 4/13/6
f 1/11/6 4/13/6 2/14/6
f 6/7/7 2/9/7 1/10/7
